<svg width="198" height="183" viewBox="0 0 198 183" fill="none" xmlns="http://www.w3.org/2000/svg">
<path d="M40.629 189.355C34.6916 184.039 31.6961 175.827 29.7061 168.323C27.6793 160.738 26.4684 152.752 26.3423 144.901C26.1794 136.968 26.8112 128.962 28.0516 121.114C29.2449 113.483 31.0857 105.456 35.4104 98.9193C39.1075 93.3555 43.5611 89.9815 50.264 89.4511C56.52 88.956 62.9002 89.7464 69.0287 88.0651C80.6669 84.8416 86.3152 74.3734 90.9272 64.0906C96.5701 51.4765 102.216 38.7633 116.276 33.9584C129.863 29.347 145.31 31.421 157.484 38.8141C169.27 45.9961 178.905 58.98 179.186 73.254C179.417 84.6951 170.848 91.9705 162.985 98.8711C154.172 106.625 146.369 115.256 146.8 127.777C147.082 135.117 149.824 141.761 152.424 148.52C153.442 151.175 154.641 154.332 153.523 157.168C151.856 161.306 146.568 163.601 142.883 165.35C140.618 166.42 142.228 169.998 144.504 168.899C150.081 166.276 157.351 162.505 157.879 155.499C158.3 149.592 154.468 143.817 152.754 138.358C150.601 131.564 149.674 124.253 152.441 117.507C154.615 112.183 158.74 107.984 162.922 104.174C170.977 96.8422 180.646 89.8405 182.694 78.3729C185.097 64.9597 177.44 50.5987 167.9 41.7701C157.324 31.9547 142.675 26.8267 128.287 27.6575C113.254 28.5173 101.095 35.6677 93.7573 48.8931C87.6962 59.8448 84.5421 75.8266 72.7619 82.3137C61.2452 88.6305 46.5432 81.3054 36.5048 91.2854C30.4349 97.3096 27.3928 105.427 25.5268 113.613C23.3094 123.376 22.3862 133.519 22.4482 143.524C22.5074 152.457 23.7721 161.467 26.1899 170.068C28.5005 178.327 31.8774 186.68 38.3728 192.471C40.2237 194.229 42.4833 191.013 40.629 189.355Z" fill="#DBD0D3"/>
</svg>
