<svg width="308" height="83" viewBox="0 0 308 83" fill="none" xmlns="http://www.w3.org/2000/svg">
<path d="M2.6666 297.504C48.7527 286.95 93.4662 268.216 125.412 231.987C165.354 186.696 181.733 127.111 207.573 73.779C214.854 58.724 223.2 44.3984 232.357 30.4068C238.524 20.9685 246.383 8.40549 257.558 4.54139C256.63 3.89577 255.701 3.25015 254.813 2.58595C254.567 8.02178 250.772 12.4102 247.319 16.3229C243.929 20.1581 240.495 23.8428 237.432 27.9666C229.943 38.0878 223.619 49.2099 218.031 60.5045C210.082 76.5513 202.882 93.546 198.05 110.815C195.588 119.617 193.534 128.939 194.616 138.083C194.747 139.17 195.874 139.822 196.899 139.666C208.64 138.055 220.176 134.928 231.665 132.017C245.402 128.533 259.076 124.858 272.901 121.675C278.591 120.367 284.288 119.129 290.063 118.221C293.747 117.644 297.885 116.833 301.627 117.449C302.345 117.581 303.376 117.863 303.471 117.965C303.596 118.078 303.518 117.748 303.446 118.123C303.424 118.182 303.061 119.521 302.944 119.746C302.105 121.11 297.364 122.468 295.204 123.075C280.125 127.3 264.432 129.49 249.116 132.556C238.625 134.664 228.179 136.922 217.781 139.5C212.307 140.854 206.86 142.319 201.449 143.864C199.878 144.321 197.809 144.592 196.441 145.492C194.88 146.555 193.5 148.656 192.321 150.129C180.834 164.195 172.847 181.065 164.483 197.059C155.164 214.909 144.671 231.789 130.709 246.411C114.325 263.519 94.8782 277.549 73.4132 287.481C52.4018 297.179 30.041 303.496 8.35075 311.335C9.20149 311.65 10.0816 311.977 10.9323 312.292C8.16524 307.514 5.67448 301.902 6.34519 296.221C6.63926 293.717 2.72941 293.374 2.43534 295.877C1.73324 302.183 4.2772 308.552 7.3608 313.916C7.93114 314.898 8.85896 315.275 9.94235 314.873C30.088 307.6 50.7425 301.656 70.3976 293.096C90.3345 284.407 108.498 272.581 124.532 257.856C140.187 243.526 152.97 226.591 163.089 207.931C172.14 191.254 180.108 173.807 191.052 158.234C193.362 154.97 196.211 149.895 199.998 148.318C205.312 146.134 211.468 145.099 217.033 143.678C227.852 140.955 238.778 138.573 249.726 136.4C265.621 133.214 282.073 131.138 297.605 126.41C300.428 125.546 304.832 124.466 306.338 121.573C307.26 119.805 307.906 117.163 306.381 115.426C304.58 113.352 301.104 113.369 298.616 113.419C293.839 113.524 289.097 114.346 284.432 115.23C257.181 120.337 230.779 129.277 203.561 134.565C201.119 135.033 198.658 135.461 196.19 135.819C196.964 136.34 197.698 136.88 198.472 137.402C197.495 128.966 199.458 120.248 201.717 112.174C204.291 102.979 207.668 94.0469 211.298 85.2426C219.324 65.8406 228.423 46.602 241.015 29.7303C247.047 21.6486 258.219 13.8308 258.712 2.95912C258.796 1.38234 257.35 0.51155 255.967 1.00368C246.545 4.27821 239.553 13.5113 233.927 21.308C226.202 31.978 219.256 43.3384 212.936 54.8977C198.55 81.2881 187.682 109.351 175.878 136.966C163.794 165.248 150.382 192.703 132.109 217.519C117.71 237.104 99.2353 253.37 78.1897 265.501C54.5578 279.119 28.4584 287.601 1.98645 293.668C-0.448426 294.206 0.191461 298.061 2.6666 297.504Z" fill="#DBD0D3"/>
</svg>
